<?xml version="1.0" encoding="UTF-8"?>
<svg id="Calque_1" xmlns="http://www.w3.org/2000/svg" version="1.1" viewBox="0 0 166.3 154">
  <!-- Generator: Adobe Illustrator 29.3.0, SVG Export Plug-In . SVG Version: 2.1.0 Build 146)  -->
  <defs>
    <style>
      .st0 {
        fill: #17428d;
      }

      .st1 {
        fill: #e94e14;
      }

      .st2 {
        fill: #d8dff2;
      }

      .st3 {
        fill: #c6d1eb;
      }
    </style>
  </defs>
  <path class="st3" d="M89.3,154c42.5,0,77-34.5,77-77S131.8,0,89.3,0,12.3,34.5,12.3,77s34.5,77,77,77"/>
  <rect class="st2" x="13.2" y="67.6" width="97.2" height="62.6"/>
  <path class="st1" d="M106.6,149.1c11,0,19.9-8.5,19.9-18.9s-8.9-18.9-19.9-18.9-19.9,8.5-19.9,18.9,8.9,18.9,19.9,18.9"/>
  <path class="st0" d="M105.5,149c-10.3,0-18.7-8.4-18.7-18.7s8.4-18.7,18.7-18.7,18.7,8.4,18.7,18.7-8.4,18.7-18.7,18.7M17.2,111.9h13.7v14.9h-13.7v-14.9ZM30.9,87.2h-13.7v-14.9h13.7v14.9ZM106,87.2h-13.7v-14.9h13.7v14.9ZM54.7,111.9h13.7v14.9h-13.7v-14.9ZM49.7,126.8h-13.7v-14.9h13.7v14.9ZM49.7,87.2h-13.7v-14.9h13.7v14.9ZM68.4,87.2h-13.7v-14.9h13.7v14.9ZM73.5,72.3h13.7v14.9h-13.7v-14.9ZM68.4,106.8h-13.7v-14.6h13.7v14.6ZM73.5,92.2h13.7v14.6h-13.7v-14.6ZM35.9,92.2h13.7v14.6h-13.7v-14.6ZM17.2,92.2h13.7v14.6h-13.7v-14.6ZM82,126.8h-8.5v-14.9h13.7v3.3c-2.7,3.3-4.5,7.2-5.2,11.6M105.5,106.6c-1.2,0-2.3,0-3.5.3h-9.8v-14.6h13.7v14.4c-.2,0-.3,0-.5,0M92.1,42.5c0,1.4-1.1,2.5-2.5,2.5s-2.5-1.1-2.5-2.5v-10.1c0-1.4,1.1-2.5,2.5-2.5s2.5,1.1,2.5,2.5v10.1ZM36.1,42.5c0,1.4-1.1,2.5-2.5,2.5s-2.5-1.1-2.5-2.5v-10.1c0-1.4,1.1-2.5,2.5-2.5s2.5,1.1,2.5,2.5v10.1ZM123.1,114.5V42.6c0-4.2-3.5-7.7-7.7-7.7h-18.3v-2.5c0-4.2-3.4-7.6-7.6-7.6s-7.6,3.4-7.6,7.6v2.5h-40.9v-2.5c0-4.2-3.4-7.6-7.6-7.6s-7.6,3.4-7.6,7.6v2.5H7.7c-4.2,0-7.7,3.5-7.7,7.7v93.6c0,4.2,3.5,7.7,7.7,7.7h34.4c1.4,0,2.5-1.1,2.5-2.5s-1.1-2.5-2.5-2.5H7.7c-1.5,0-2.7-1.2-2.7-2.7V42.6c0-1.5,1.2-2.7,2.7-2.7h18.3v2.5c0,4.2,3.4,7.6,7.6,7.6s7.6-3.4,7.6-7.6v-2.5h40.9v2.5c0,4.2,3.4,7.6,7.6,7.6s7.6-3.4,7.6-7.6v-2.5h18.3c1.5,0,2.7,1.2,2.7,2.7v12.5H22.7c-1.4,0-2.5,1.1-2.5,2.5s1.1,2.5,2.5,2.5h95.4v50.1c-2.2-1.4-4.5-2.4-7.1-3v-37.5c0-1.4-1.1-2.5-2.5-2.5H14.6c-1.4,0-2.5,1.1-2.5,2.5v59.5c0,1.4,1.1,2.5,2.5,2.5h67.2c.2,2.5.7,4.8,1.6,7.1h-21.1c-1.4,0-2.5,1.1-2.5,2.5s1.1,2.5,2.5,2.5h23.8c4.3,6.1,11.4,10.1,19.4,10.1,13.1,0,23.7-10.6,23.7-23.7s-2.3-11.6-6.1-15.8"/>
  <path class="st0" d="M113.7,124.2l-7.8,7.8-3.5-3.5c-1-1-2.6-1-3.6,0-1,1-1,2.6,0,3.6l5.3,5.3c.5.5,1.1.7,1.8.7s1.3-.3,1.8-.7l9.6-9.6c1-1,1-2.6,0-3.6-1-1-2.6-1-3.6,0"/>
  <path class="st0" d="M53.1,138.9c-.7,0-1.3.3-1.8.7-.5.5-.7,1.1-.7,1.8s.3,1.3.7,1.8c.5.5,1.1.7,1.8.7s1.3-.3,1.8-.7c.5-.5.7-1.1.7-1.8s-.3-1.3-.7-1.8c-.5-.5-1.1-.7-1.8-.7"/>
</svg>