<?xml version="1.0" encoding="UTF-8"?>
<svg id="Calque_1" xmlns="http://www.w3.org/2000/svg" version="1.1" viewBox="0 0 164.7 154.6">
  <!-- Generator: Adobe Illustrator 29.3.0, SVG Export Plug-In . SVG Version: 2.1.0 Build 146)  -->
  <defs>
    <style>
      .st0 {
        fill: #17428d;
      }

      .st1 {
        fill: #e94e14;
      }

      .st2 {
        fill: #1172b7;
      }

      .st3 {
        fill: #9cb4de;
      }

      .st4 {
        fill: #fff;
      }

      .st5 {
        fill: #c6d1eb;
      }
    </style>
  </defs>
  <path class="st5" d="M77.3,154.6c42.7,0,77.3-34.6,77.3-77.3S120,0,77.3,0,0,34.6,0,77.3s34.6,77.3,77.3,77.3"/>
  <path class="st1" d="M57.3,62.1c9.9,0,17.9-8,17.9-17.9s-8-18-17.9-18-17.9,8-17.9,18,8,17.9,17.9,17.9"/>
  <path class="st5" d="M143.8,62.1c9.9,0,17.9-8,17.9-17.9s-8-18-17.9-18-17.9,8-17.9,18,8,17.9,17.9,17.9"/>
  <path class="st4" d="M57.3,153.2c9.9,0,17.9-8,17.9-17.9s-8-18-17.9-18-17.9,8-17.9,18,8,17.9,17.9,17.9"/>
  <path class="st4" d="M100.2,124c18.2,0,32.9-15.2,32.9-33.9s-14.7-33.9-32.9-33.9-32.9,15.2-32.9,33.9,14.7,33.9,32.9,33.9"/>
  <path class="st3" d="M143.8,153.2c9.9,0,17.9-8,17.9-17.9s-8-18-17.9-18-17.9,8-17.9,18,8,17.9,17.9,17.9"/>
  <path class="st1" d="M100.5,152.3c5.8,0,10.5-4.1,10.5-9.2s-4.7-9.2-10.5-9.2-10.5,4.1-10.5,9.2,4.7,9.2,10.5,9.2"/>
  <path class="st2" d="M48.7,98.9c4.8,0,8.6-4.1,8.6-9.2s-3.9-9.2-8.6-9.2-8.6,4.1-8.6,9.2,3.9,9.2,8.6,9.2"/>
  <path class="st0" d="M100.2,46.2c4.8,0,8.6-4.1,8.6-9.2s-3.9-9.2-8.6-9.2-8.6,4.1-8.6,9.2,3.9,9.2,8.6,9.2"/>
  <path class="st0" d="M157.7,144.3c-.9-2.8-2.7-5.3-5.1-7,1.1-1.5,1.7-3.4,1.7-5.5,0-5.2-4.3-9.5-9.5-9.5s-9.5,4.3-9.5,9.5.6,3.9,1.7,5.5c-2.4,1.7-4.2,4.2-5.1,7-2-2.7-3.2-6-3.2-9.7,0-8.9,7.2-16.1,16.1-16.1s16.1,7.2,16.1,16.1-1.2,7-3.2,9.7M139.1,131.9c0-3.1,2.6-5.7,5.7-5.7s5.7,2.6,5.7,5.7-2.6,5.7-5.7,5.7-5.7-2.6-5.7-5.7M144.8,150.8c-3.6,0-7-1.2-9.7-3.2.3-3.1,2.1-5.9,4.8-7.5,1.4.9,3.1,1.4,4.9,1.4s3.5-.5,4.9-1.4c2.7,1.6,4.5,4.4,4.8,7.5-2.7,2-6,3.2-9.7,3.2M118.6,116.4c-5.1,3.6-11.4,5.7-18.1,5.7s-13-2.1-18.1-5.7v-1.4c0-4.8,2.6-6.4,7-7.8l8.1,4.8c1.1.7,2,1,2.9,1s1.9-.3,2.9-1l8.1-4.8c4.4,1.4,7,3,7,7.8v1.4ZM108.4,142.4c0,4.3-3.5,7.8-7.8,7.8s-7.8-3.5-7.8-7.8,3.5-7.8,7.8-7.8,7.8,3.5,7.8,7.8M106.9,105.6l-5.4,3.2s0,0,0,0c-.9.6-.9.6-1.8,0,0,0,0,0,0,0l-5.4-3.2c.8-.6,1.4-1.5,1.8-2.2.1,0,.2,0,.4.1,1.5.6,2.9.8,4.3.8s2.7-.3,4.2-.8c.1,0,.2,0,.4-.1.4.8.9,1.6,1.8,2.2M88.1,87.9v-2.7c2.5-.6,3.7-1.9,4.6-2.8.9-.9,1-1,1.9-.8.7.2,1.4.4,1.9.5,1.8.5,2.8.8,4,.8s2.1-.3,4-.8c.5-.1,1.2-.3,1.9-.5.9-.2,1-.1,1.9.8.9.9,2.2,2.2,4.6,2.8v2.7c0,4.4-4.5,10.2-9.5,12-2.2.8-3.7.8-5.8,0-5-1.8-9.5-7.6-9.5-12M69.1,144.2c-.9-2.8-2.7-5.2-5.1-7,1.1-1.5,1.7-3.4,1.7-5.5,0-5.2-4.3-9.5-9.5-9.5s-9.5,4.3-9.5,9.5.6,3.9,1.7,5.5c-2.4,1.7-4.2,4.2-5.1,7-2-2.7-3.2-6-3.2-9.7,0-8.9,7.2-16.1,16.1-16.1s16.1,7.2,16.1,16.1c0,3.6-1.2,7-3.2,9.7M50.6,131.8c0-3.1,2.6-5.7,5.7-5.7s5.7,2.6,5.7,5.7-2.6,5.7-5.7,5.7-5.7-2.6-5.7-5.7M56.3,150.7c-3.6,0-7-1.2-9.7-3.2.3-3.1,2.1-5.9,4.8-7.5,1.4.9,3.1,1.4,4.9,1.4s3.5-.5,4.9-1.4c2.7,1.6,4.5,4.4,4.8,7.5-2.7,2-6,3.2-9.7,3.2M48.4,98.1c-4.3,0-7.8-3.5-7.8-7.8s3.5-7.8,7.8-7.8,7.8,3.5,7.8,7.8-3.5,7.8-7.8,7.8M65.1,47.6c1.1-1.5,1.7-3.4,1.7-5.5,0-5.2-4.3-9.5-9.5-9.5s-9.5,4.3-9.5,9.5.6,3.9,1.7,5.5c-2.4,1.7-4.2,4.2-5.1,7-2-2.7-3.2-6-3.2-9.7,0-8.9,7.2-16.1,16.1-16.1s16.1,7.2,16.1,16.1-1.2,7-3.2,9.7c-.9-2.8-2.7-5.2-5.1-7M51.7,42.1c0-3.1,2.6-5.7,5.7-5.7s5.7,2.6,5.7,5.7-2.6,5.7-5.7,5.7-5.7-2.6-5.7-5.7M57.4,60.9c-3.6,0-7-1.2-9.7-3.2.3-3.1,2.1-5.9,4.8-7.5,1.4.9,3.1,1.4,4.9,1.4s3.5-.5,4.9-1.4c2.7,1.6,4.5,4.4,4.8,7.5-2.7,2-6,3.2-9.7,3.2M92.7,38.1c0-4.3,3.5-7.8,7.8-7.8s7.8,3.5,7.8,7.8-3.5,7.8-7.8,7.8-7.8-3.5-7.8-7.8M127.6,44.8c0-8.9,7.2-16.1,16.1-16.1s16.1,7.2,16.1,16.1-1.2,7-3.2,9.7c-.9-2.8-2.7-5.2-5.1-7,1.1-1.5,1.7-3.4,1.7-5.5,0-5.2-4.3-9.5-9.5-9.5s-9.5,4.3-9.5,9.5.6,3.9,1.7,5.5c-2.4,1.7-4.2,4.2-5.1,7-2-2.7-3.2-6-3.2-9.7M138,42.1c0-3.1,2.6-5.7,5.7-5.7s5.7,2.6,5.7,5.7-2.6,5.7-5.7,5.7-5.7-2.6-5.7-5.7M143.7,60.9c-3.6,0-7-1.2-9.7-3.2.3-3.1,2.1-5.9,4.8-7.5,1.4.9,3.1,1.4,4.9,1.4s3.5-.5,4.9-1.4c2.7,1.6,4.5,4.4,4.8,7.5-2.7,2-6,3.2-9.7,3.2M152.7,82.4c4.3,0,7.8,3.5,7.8,7.8s-3.5,7.8-7.8,7.8-7.8-3.5-7.8-7.8,3.5-7.8,7.8-7.8M144.8,114.7c-4.8,0-9.2,1.7-12.7,4.6l-5.2-5.3c5.3-5.9,8.6-13.5,9.1-21.9h5.1c.9,5.5,5.7,9.7,11.5,9.7s11.6-5.2,11.6-11.6-5.2-11.6-11.6-11.6-10.6,4.2-11.5,9.7h-5.1c-.1-2.2-.4-4.5-1-6.6-.2-1-1.3-1.6-2.3-1.4-1,.2-1.6,1.3-1.4,2.3.6,2.5.9,5,.9,7.6,0,9.1-3.8,17.3-10,23.1-.8-7.4-7.2-9.2-12-10.4-.3,0-.6-.2-1-.3-.4-.1-.7-.6-.9-1.1,4.7-3.2,8.3-8.8,8.3-13.6v-4.4c0-5.4-1.7-10.1-5-13.4-2.9-3-6.9-4.6-11.2-4.7h0c-2.3,0-4.6.6-6.7,1.6-.9.4-1.4,1.6-.9,2.5.4.9,1.6,1.4,2.5.9,1.6-.7,3.3-1.1,5.1-1.2,5.5.1,11.3,3.9,12.3,11.8-.8-.4-1.3-.9-1.8-1.4-1.1-1.1-2.5-2.6-5.6-1.8-.7.2-1.4.4-1.9.5-1.6.4-2.4.6-3,.6s-1.4-.2-3-.6c-.5-.1-1.2-.3-1.9-.5-3-.8-4.5.7-5.6,1.8-.5.6-1,1.1-1.8,1.4.3-2.3,1-4.3,2-6.1.6-.9.3-2.1-.6-2.6-.9-.6-2.1-.3-2.6.6-1.8,2.9-2.8,6.5-2.8,10.5v4.4c0,4.8,3.5,10.4,8.3,13.6-.2.5-.5,1-.9,1.1-.3,0-.6.2-.9.3-4.8,1.3-11.2,3-12,10.4-6.1-5.8-10-14-10-23.1,0-17.5,14.2-31.8,31.8-31.8s21.7,6,27.4,15.7c0,0,0,0,0,0,.1.2.2.3.3.5v.2c.6.9,1.8,1.2,2.7.7.9-.5,1.2-1.7.7-2.6h0c-.1-.4-.2-.6-.4-.8-1.2-2.1-2.6-4-4.2-5.8l5.3-5.3c3.2,2.3,7.2,3.6,11.4,3.6s9.2-1.7,12.7-4.6c.1,0,.2-.2.3-.3,4.2-3.7,6.9-9,6.9-15.1,0-11-8.9-19.9-19.9-19.9s-19.9,8.9-19.9,19.9,2.1,10.2,5.6,13.8l-5.1,5.1c-1.8-1.6-3.7-3-5.8-4.3-4.9-2.9-10.4-4.5-16-4.8v-5.1c5.5-.9,9.7-5.7,9.7-11.5s-5.2-11.6-11.6-11.6-11.6,5.2-11.6,11.6,4.2,10.6,9.7,11.5v5.1c-8.4.4-16,3.8-21.9,9.1l-5.1-5.1c3.5-3.6,5.6-8.5,5.6-13.8,0-11-8.9-19.9-19.9-19.9s-19.9,8.9-19.9,19.9,2.7,11.4,6.9,15.1c0,0,.2.2.3.3,3.4,2.9,7.9,4.6,12.7,4.6s8.2-1.3,11.4-3.6l5.3,5.3c-5.3,5.9-8.6,13.5-9.1,21.9h-5.1c-.9-5.5-5.7-9.7-11.5-9.7s-11.6,5.2-11.6,11.6,5.2,11.6,11.6,11.6,10.6-4.2,11.5-9.7h5.1c.4,8.4,3.8,16,9.1,21.9l-5.2,5.2c-3.4-2.8-7.9-4.6-12.7-4.6-11,0-19.9,8.9-19.9,19.9s8.9,19.9,19.9,19.9,19.9-8.9,19.9-19.9-1.7-9.2-4.6-12.7l5.2-5.2c.5.4.9.8,1.4,1.2.5.4.9.8,1.4,1.1,5.4,3.9,11.9,6.4,19,6.8v5.1c-5.5.9-9.7,5.7-9.7,11.5s5.2,11.6,11.6,11.6,11.6-5.2,11.6-11.6-4.2-10.6-9.7-11.5v-5.1c7.1-.4,13.6-2.8,19-6.8.1,0,.2-.2.4-.3.9-.6,1.7-1.3,2.5-2l5.2,5.3c-2.8,3.4-4.6,7.9-4.6,12.7s2.7,11.4,6.9,15c.1.1.2.2.4.3,3.4,2.8,7.9,4.6,12.7,4.6s9.2-1.7,12.7-4.6c.1,0,.3-.2.4-.3,4.2-3.7,6.9-9,6.9-15,0-11-8.9-19.9-19.9-19.9"/>
</svg>