<?xml version="1.0" encoding="UTF-8"?>
<svg id="Calque_1" xmlns="http://www.w3.org/2000/svg" version="1.1" viewBox="0 0 170.1 150.2">
  <!-- Generator: Adobe Illustrator 29.3.0, SVG Export Plug-In . SVG Version: 2.1.0 Build 146)  -->
  <defs>
    <style>
      .st0 {
        fill: #17428d;
      }

      .st1 {
        fill: #e94e14;
      }

      .st2 {
        fill: #1172b7;
      }

      .st3 {
        fill: #fff;
      }

      .st4 {
        fill: #c6d1eb;
      }
    </style>
  </defs>
  <path class="st4" d="M75.1,150.2c41.5,0,75.1-33.6,75.1-75.1S116.6,0,75.1,0,0,33.6,0,75.1s33.6,75.1,75.1,75.1"/>
  <rect class="st4" x="77" y="34.9" width="62" height="85.5"/>
  <rect class="st2" x="77" y="112.4" width="62" height="15.5"/>
  <rect class="st2" x="77" y="27.1" width="62" height="15.5"/>
  <path class="st3" d="M140,67.9v25.2h-3.9l-11.6-11.6-3.9,5.8,3.9,9.7,1.9,1.9,1.8,7.8,2.1,3.9s11.6,0,11.6,1.9-1.9,11.6-1.9,11.6l-1.9,3.9-7.8,1.9,7.8,7.8,19.4-19.4-1.9-3.9-5.8-42.6-9.7-3.9Z"/>
  <rect class="st3" x="47" y="34.9" width="60.1" height="62"/>
  <polyline class="st3" points="95.5 93.1 95.5 102.8 81.9 93.1"/>
  <rect class="st1" x="135.2" y="126.3" width="32.9" height="11" transform="translate(-48.8 145.9) rotate(-45)"/>
  <path class="st0" d="M142.5,95.1h-3.9V30.1c0-1.1-.9-2-2-2h-55.1c-1.1,0-2,.9-2,2h-3.9c0-3.3,2.6-5.9,5.9-5.9h55.1c3.3,0,5.9,2.6,5.9,5.9v65Z"/>
  <path class="st0" d="M136.6,130.5h-55.1c-3.3,0-5.9-2.6-5.9-5.9v-23.6h3.9v23.6c0,1.1.9,2,2,2h55.1c1.1,0,2-.9,2-2v-11.8h3.9v11.8c0,3.3-2.6,5.9-5.9,5.9"/>
  <path class="st0" d="M144.5,114.8h-3.9c-11.8,0-15.4-9.3-15.7-14.9l-1.4-1.4c-5.1-5.1-5.1-13.4,0-18.5.8-.8,2-.8,2.8,0l13.2,13.2h5.1v3.9h-5.9c-.5,0-1-.2-1.4-.6l-12.2-12.2c-2.3,3.6-1.8,8.4,1.2,11.4l2,2c.4.4.6.9.6,1.4,0,1.2.4,11.8,11.8,11.8h3.9v3.9Z"/>
  <path class="st0" d="M138.6,140.4c-.5,0-1-.2-1.4-.6l-9.8-9.8,2.8-2.8,8.5,8.4,16.9-16.9-2.5-2.5c-.3-.3-.5-.7-.6-1.2l-3.8-40.3-9-5.4,2-3.4,9.8,5.9c.5.3.9.9.9,1.5l3.9,40.6,3.4,3.4c.8.8.8,2,0,2.8l-19.7,19.7c-.4.4-.9.6-1.4.6"/>
  <path class="st0" d="M144.5,150.2c-.5,0-1-.2-1.4-.6l-7.9-7.9c-.8-.8-.8-2,0-2.8l2-2,2.8,2.8-.6.6,5.1,5.1,20.8-20.8-5.1-5.1-.6.6-2.8-2.8,2-2c.8-.8,2-.8,2.8,0l7.9,7.9c.8.8.8,2,0,2.8l-23.6,23.6c-.4.4-.9.6-1.4.6"/>
  <rect class="st0" x="113" y="40" width="27.6" height="3.9"/>
  <rect class="st0" x="101.2" y="118.7" width="15.7" height="3.9"/>
  <rect class="st0" x="77.6" y="110.8" width="63" height="3.9"/>
  <path class="st0" d="M168.1,150.2h-23.6v-3.9h21.7v-21.7h3.9v23.6c0,1.1-.9,2-2,2"/>
  <path class="st0" d="M50,36c-1.1,0-2,.9-2,2v55.1c0,1.1.9,2,2,2h37.4c.5,0,1,.2,1.4.6l4.5,4.5v-3.1c0-1.1.9-2,2-2h9.8c1.1,0,2-.9,2-2v-55.1c0-1.1-.9-2-2-2h-55.1ZM95.3,106.9c-.5,0-1-.2-1.4-.6l-7.3-7.3h-36.6c-3.3,0-5.9-2.6-5.9-5.9v-55.1c0-3.3,2.6-5.9,5.9-5.9h55.1c3.3,0,5.9,2.6,5.9,5.9v55.1c0,3.3-2.6,5.9-5.9,5.9h-7.9v5.9c0,1.1-.9,2-2,2"/>
  <path class="st0" d="M134.6,57.7h-3.9v-5.9h-5.9v-3.9h7.9c1.1,0,2,.9,2,2v7.9Z"/>
  <rect class="st0" x="130.7" y="59.7" width="3.9" height="17.7"/>
  <rect class="st0" x="113" y="87.2" width="9.8" height="3.9"/>
  <rect class="st0" x="130.7" y="81.3" width="3.9" height="7.9"/>
  <path class="st0" d="M55.9,51.8h7.9v-7.9h-7.9v7.9ZM65.7,55.7h-11.8c-1.1,0-2-.9-2-2v-11.8c0-1.1.9-2,2-2h11.8c1.1,0,2,.9,2,2v11.8c0,1.1-.9,2-2,2"/>
  <rect class="st0" x="57.9" y="45.9" width="3.9" height="3.9"/>
  <path class="st0" d="M91.3,51.8h7.9v-7.9h-7.9v7.9ZM101.2,55.7h-11.8c-1.1,0-2-.9-2-2v-11.8c0-1.1.9-2,2-2h11.8c1.1,0,2,.9,2,2v11.8c0,1.1-.9,2-2,2"/>
  <rect class="st0" x="93.3" y="45.9" width="3.9" height="3.9"/>
  <path class="st0" d="M91.3,87.2h7.9v-7.9h-7.9v7.9ZM101.2,91.2h-11.8c-1.1,0-2-.9-2-2v-11.8c0-1.1.9-2,2-2h11.8c1.1,0,2,.9,2,2v11.8c0,1.1-.9,2-2,2"/>
  <rect class="st0" x="93.3" y="81.3" width="3.9" height="3.9"/>
  <path class="st0" d="M55.9,87.2h7.9v-7.9h-7.9v7.9ZM65.7,91.2h-11.8c-1.1,0-2-.9-2-2v-11.8c0-1.1.9-2,2-2h11.8c1.1,0,2,.9,2,2v11.8c0,1.1-.9,2-2,2"/>
  <rect class="st0" x="57.9" y="81.3" width="3.9" height="3.9"/>
  <rect class="st0" x="71.7" y="47.8" width="3.9" height="43.3"/>
  <rect class="st0" x="79.5" y="40" width="3.9" height="43.3"/>
  <rect class="st0" x="59.8" y="59.7" width="43.3" height="3.9"/>
  <rect class="st0" x="52" y="67.5" width="43.3" height="3.9"/>
  <rect class="st0" x="93.3" y="53.8" width="3.9" height="23.6"/>
  <rect class="st0" x="65.7" y="45.9" width="23.6" height="3.9"/>
  <rect class="st0" x="57.9" y="53.8" width="3.9" height="23.6"/>
  <rect class="st0" x="65.7" y="81.3" width="23.6" height="3.9"/>
  <rect class="st0" x="99.2" y="67.5" width="3.9" height="3.9"/>
  <rect class="st0" x="52" y="59.7" width="3.9" height="3.9"/>
  <rect class="st0" x="79.5" y="87.2" width="3.9" height="3.9"/>
  <rect class="st0" x="71.7" y="40" width="3.9" height="3.9"/>
</svg>