<?xml version="1.0" encoding="UTF-8"?>
<svg id="Calque_1" xmlns="http://www.w3.org/2000/svg" version="1.1" viewBox="0 0 173.9 153.6">
  <!-- Generator: Adobe Illustrator 29.3.0, SVG Export Plug-In . SVG Version: 2.1.0 Build 146)  -->
  <defs>
    <style>
      .st0 {
        fill: #17428d;
      }

      .st1 {
        fill: #e94e14;
      }

      .st2 {
        fill: #1172b7;
      }

      .st3 {
        fill: #fff;
      }

      .st4 {
        fill: #c6d1eb;
      }
    </style>
  </defs>
  <path class="st4" d="M76.8,153.6c42.4,0,76.8-34.4,76.8-76.8S119.2,0,76.8,0,0,34.4,0,76.8s34.4,76.8,76.8,76.8"/>
  <rect class="st4" x="78.8" y="35.7" width="63.4" height="87.4"/>
  <rect class="st2" x="78.8" y="115" width="63.4" height="15.9"/>
  <rect class="st2" x="78.8" y="27.7" width="63.4" height="15.9"/>
  <path class="st3" d="M143.2,69.4v25.8h-4l-11.9-11.9-4,5.9,4,9.9,2,2,1.8,7.9,2.1,4s11.9,0,11.9,2-2,11.9-2,11.9l-2,4-7.9,2,7.9,7.9,19.8-19.8-2-4-5.9-43.6-9.9-4Z"/>
  <rect class="st1" x="138.3" y="129.2" width="33.6" height="11.2" transform="translate(-49.9 149.2) rotate(-45)"/>
  <path class="st0" d="M145.7,97.2h-4V30.8c0-1.1-.9-2-2-2h-56.4c-1.1,0-2,.9-2,2v9s-4,0-4,0v-9c0-3.3,2.7-6,6-6h56.4c3.3,0,6,2.7,6,6v66.4Z"/>
  <path class="st0" d="M139.7,133.5h-56.4c-3.3,0-6-2.7-6-6v-24.2h4v24.2c0,1.1.9,2,2,2h56.4c1.1,0,2-.9,2-2v-12.1h4v12.1c0,3.3-2.7,6-6,6"/>
  <path class="st0" d="M147.8,117.4h-4c-12.1,0-15.7-9.5-16.1-15.2l-1.4-1.4c-5.2-5.2-5.2-13.7,0-19,.8-.8,2.1-.8,2.8,0l13.5,13.5h5.2v4h-6c-.5,0-1-.2-1.4-.6l-12.5-12.5c-2.4,3.7-1.8,8.6,1.3,11.7l2,2c.4.4.6.9.6,1.4,0,1.2.4,12.1,12.1,12.1h4v4Z"/>
  <path class="st0" d="M141.7,143.5c-.5,0-1-.2-1.4-.6l-10.1-10.1,2.8-2.8,8.6,8.6,17.3-17.3-2.6-2.6c-.3-.3-.5-.8-.6-1.2l-3.9-41.3-9.2-5.5,2.1-3.5,10.1,6c.5.3.9.9,1,1.5l4,41.6,3.5,3.5c.8.8.8,2.1,0,2.8l-20.1,20.1c-.4.4-.9.6-1.4.6"/>
  <path class="st0" d="M147.8,153.6c-.5,0-1-.2-1.4-.6l-8.1-8.1c-.8-.8-.8-2.1,0-2.8l2-2,2.8,2.8-.6.6,5.2,5.2,21.3-21.3-5.2-5.2-.6.6-2.8-2.8,2-2c.8-.8,2.1-.8,2.8,0l8.1,8.1c.8.8.8,2.1,0,2.8l-24.2,24.2c-.4.4-.9.6-1.4.6"/>
  <rect class="st0" x="115.5" y="40.9" width="28.2" height="4"/>
  <rect class="st0" x="103.5" y="121.4" width="16.1" height="4"/>
  <rect class="st0" x="79.3" y="113.3" width="64.4" height="4"/>
  <path class="st0" d="M171.9,153.6h-24.2v-4h22.1v-22.1h4v24.2c0,1.1-.9,2-2,2"/>
  <path class="st0" d="M56.8,81.8c-.2-10.5,11.1-18,20.7-13.9,1.9,3.5,4.8,6.4,8.3,8.4,4,9.6-3.5,20.7-13.9,20.5-1.7-.4-3.3-.4-5,0l-4,2.3v-4c0-.8-.3-1.6-1-2.1-3.2-2.9-5.1-7-5.1-11.3M95.8,43.1c13.8,0,20.2,17.2,9.9,26.3-.6.5-1,1.3-1,2.1v4l-4-2.3c-1.6-.5-3.3-.5-5,0-19.9-.8-19.9-29.2,0-30M57.2,104.1c0,2.3,2.6,3.5,4.3,2.5l7.3-4.3c13.5,2.2,25.8-10.2,23.4-23.7,2.2.4,4.3.4,6.5,0l7.3,4.3c1.7,1,4.3-.2,4.3-2.5v-7.7c13-12.9,3.7-35.4-14.6-35.3-12.6-.1-22.5,11.6-20.4,24-19.9-3.3-32.3,20.8-18.1,35v7.7Z"/>
  <path class="st0" d="M63.4,84.9c3.7,0,3.7-5.7,0-5.7s-3.7,5.7,0,5.7"/>
  <path class="st0" d="M71.8,84.9c3.7,0,3.7-5.7,0-5.7s-3.7,5.7,0,5.7"/>
  <path class="st0" d="M80.3,84.9c3.7,0,3.7-5.7,0-5.7s-3.7,5.7,0,5.7"/>
  <path class="st0" d="M89.1,64.9c1.3,1.1,2.7,1.1,4,0l2.6-2.6,2.6,2.6c2.6,2.6,6.6-1.4,4-4l-2.6-2.6,2.6-2.6c2.6-2.6-1.4-6.6-4-4l-2.6,2.6-2.6-2.6c-2.6-2.6-6.6,1.4-4,4l2.6,2.6-2.6,2.6c-1.1,1.1-1.1,2.9,0,4"/>
</svg>