<?xml version="1.0" encoding="UTF-8"?>
<svg id="Calque_1" xmlns="http://www.w3.org/2000/svg" version="1.1" viewBox="0 0 173.8 160.1">
  <!-- Generator: Adobe Illustrator 29.3.0, SVG Export Plug-In . SVG Version: 2.1.0 Build 146)  -->
  <defs>
    <style>
      .st0 {
        fill: #17428d;
      }

      .st1 {
        fill: #1172b7;
      }

      .st2 {
        fill: #e65117;
      }

      .st3 {
        fill: #fff;
      }

      .st4 {
        fill: #c6d1eb;
      }
    </style>
  </defs>
  <path class="st4" d="M95.5,156.7c43.3,0,78.3-35.1,78.3-78.3S138.7,0,95.5,0,17.1,35.1,17.1,78.3s35.1,78.3,78.3,78.3"/>
  <path class="st0" d="M100.8,132.9c1.5,0,2.6-1.1,2.6-2.6,0-1.5-1.3-2.7-2.7-2.7-1.3,0-2.6,1.4-2.6,2.7,0,1.4,1.3,2.6,2.7,2.6M102.1,40.9c0-6.9-5.1-12.2-11.8-12.2-6.6,0-11.7,5.3-11.7,12.1,0,6.8,5.2,12.2,11.8,12.2,6.6,0,11.7-5.4,11.7-12.1M58.2,40.8c0-6.8-5.1-12.1-11.7-12.1-6.7,0-11.8,5.3-11.8,12.2,0,6.7,5.2,12.1,11.7,12.1,6.6,0,11.8-5.4,11.8-12.2"/>
  <path class="st0" d="M112.2,55.9c-3.7,0-6.4,2.9-6.4,6.7,0,3.8,2.8,6.7,6.4,6.7,3.6,0,6.3-2.9,6.4-6.6,0-3.8-2.7-6.8-6.4-6.8M74.8,62.6c0-3.8-2.8-6.7-6.5-6.7-3.6,0-6.3,2.9-6.3,6.7,0,3.8,2.8,6.7,6.4,6.7,3.6,0,6.4-2.9,6.4-6.7M30.9,62.6c0-3.8-2.7-6.7-6.3-6.7-3.7,0-6.5,2.8-6.5,6.6,0,3.8,2.7,6.8,6.3,6.8,3.6,0,6.4-2.9,6.5-6.7M59.6,105.8v1.6c0,14.4,0,28.8,0,43.2,0,2.6,1.2,4.2,3.1,4.1,1.9,0,3-1.5,3-4.1,0-11.7,0-23.4,0-35.1,0-.5,0-1,0-1.5.3-1.4,1.6-2.4,2.9-2.3,1.2,0,2.3,1.2,2.5,2.6,0,.4,0,.8,0,1.2,0,8.6,0,17.3,0,25.9,0,1,.4,2.2,1,3,.7,1,2,1,3,.5,1.4-.6,1.8-1.9,1.8-3.3,0-11.5,0-23,0-34.6,0-1-.4-1.2-1.2-1.2-2.7,0-5.4,0-8.1-.1-2.7,0-5.3,0-8.1,0M15.8,105.8v44.8c0,2.6,1.2,4.2,3.1,4.1,1.9,0,3-1.5,3-4.1v-35c0-.4,0-.9,0-1.3.2-1.5,1.5-2.6,2.9-2.6,1.3,0,2.4,1.3,2.5,2.7,0,.4,0,.8,0,1.2,0,8.6,0,17.2,0,25.8,0,.8.2,1.7.5,2.4.6,1.2,1.9,1.6,3.2,1.2,1.4-.4,2.2-1.5,2.2-3.4,0-11.5,0-23,0-34.6,0-1-.3-1.2-1.2-1.2-2.8,0-5.7,0-8.5-.1-2.5,0-5,0-7.7,0M126.4,107.7c2.6-1.1,4.5-2.9,4.6-5.5.2-5.9.4-11.9,0-17.8-.4-4.8-5.4-9.2-10-9.3-5.8-.2-11.7-.2-17.5,0-4.8.1-10,5-10.2,9.9-.3,5.3-.3,10.7-.2,16,0,3.4,2.3,6.2,5,6.8v-1.5c0-5.4,0-10.9,0-16.3,0-.6,0-1.2.2-1.7.4-1.3,1.5-1.9,2.8-1.8,1.2.1,2.3,1,2.3,2.3,0,2.4,0,4.8,0,7.2,0,1.4,0,2.8,0,4.3h17.4c0-.6,0-1.1,0-1.6,0-3,0-6.1,0-9.1,0-.9.4-2,1-2.6.6-.5,1.9-.7,2.7-.4,1.3.3,1.8,1.5,1.8,2.8,0,4.4,0,8.7,0,13.1v5.2M77.1,100.3c0-.7,0-1.2,0-1.8,0-3.2,0-6.4,0-9.6,0-1.5,1.1-2.4,2.4-2.5,1.4,0,2.5.7,2.9,2.1.1.5.1,1.1.1,1.6,0,5.4,0,10.8,0,16.2v1.5c2.8-.9,4.9-3.6,4.9-6.9,0-5.2,0-10.4-.2-15.6-.3-5.2-5.4-10-10.5-10.1-5-.1-10.1-.2-15.1-.2-1,0-2.1,0-3,.3-5.9,1.5-9.4,6.1-9.5,12.3,0,4.2,0,8.5,0,12.7,0,.8,0,1.7.3,2.5.7,2.5,2.2,4.2,4.8,5.3v-1.4c0-5.7,0-11.3,0-17,0-1.9,1.1-3.1,2.8-3.1,1.6,0,2.6,1.1,2.6,3,0,1.8,0,3.6,0,5.3v5.5h17.4ZM10.4,107.7c0-6.1,0-12.1,0-18.1,0-1.9,1-3.1,2.7-3.2,1.7,0,2.7,1.1,2.7,3.1,0,3.1,0,6.2,0,9.3v1.4h17.4c0-.6,0-1.1,0-1.7,0-3.2,0-6.4,0-9.6,0-1.5,1-2.5,2.4-2.6,1.4-.1,2.5.6,2.9,2,.1.5.2,1.1.2,1.6,0,5.4,0,10.9,0,16.3,0,.5,0,.9,0,1.4,2.9-1,4.8-3.7,4.9-6.9,0-5.2,0-10.5-.3-15.7-.2-4.8-5.3-9.8-10.2-9.9-5.7-.2-11.5-.2-17.2,0-5.1.1-10.2,5-10.4,10.1-.3,5.2-.3,10.5-.2,15.7,0,3.3,2.1,6,5,6.9M0,84.5c.2-.9.4-1.8.7-2.7,2.1-6.3,6.4-10.4,12.9-12,.2,0,.4-.1.6-.2.1,0,.2,0,.4-.1-3.8-6.8-1.2-13.6,2.9-16.7,4.2-3.1,10.2-3,14.4.3,4.1,3.2,6.2,10.1,2.5,16.4,5,1,9.1,3.5,12,7.9,3-4.3,6.9-7,12.1-7.9-2.1-3.5-2.5-7.2-1.3-11,.8-2.6,2.4-4.6,4.6-6.1,4.4-3,10.3-2.6,14.4,1,3.9,3.4,5.5,10.1,2,16,5,1,9.1,3.5,12,7.9,3-4.3,7-7,12-7.9-3.7-6.5-1.6-13.4,2.7-16.6,4.1-3.1,10.1-3.2,14.2-.2,4.2,3.1,6.7,9.9,2.9,16.8,2.9.6,5.6,1.6,7.9,3.4,4.3,3.5,6.8,8,6.8,13.7,0,4.4,0,8.7,0,13.1,0,6.9-3.3,11.4-9.8,13.6-.2,0-.3.1-.6.2v1.6c0,9,0,17.9,0,26.8,0,5.2-4,9.1-9,8.8-.8,0-1.6-.3-2.5-.4,0,.4,0,.9,0,1.3,0,4.6-3.5,8.4-7.8,8.5-4.7.2-8.6-3.1-8.9-7.8-.2-3.8,0-7.6,0-11.4,0-1.7,1.2-2.7,2.7-2.7,1.6,0,2.6,1.1,2.7,2.9,0,3.2,0,6.4,0,9.6,0,.6,0,1.2.2,1.8.3,1.3,1.5,2.2,2.8,2.3,1.2,0,2.5-.8,2.8-2,.2-.7.3-1.4.3-2.1,0-11.8,0-23.6,0-35.4,0-1.9.6-2.8,2-3.2,1.6-.5,3.2.4,3.4,2.1,0,.4,0,.9,0,1.3,0,8.7,0,17.4,0,26,0,2.1.8,3.3,2.4,3.6,1.5.3,2.9-.5,3.3-2,.2-.6.2-1.2.2-1.8,0-11.3,0-22.6,0-33.9,0-1.2-.3-1.5-1.5-1.5-4.8,0-9.6,0-14.4-.1-.5,0-1,0-1.6,0v1.6c0,4,0,7.9,0,11.9,0,2-1.1,3.2-2.8,3.2-1.6,0-2.6-1.3-2.6-3.3,0-1.9,0-3.7,0-5.7-3.1-.8-5.6-2.3-7.7-4.9-2.1,2.5-4.6,4.1-7.8,4.9v1.6c0,9,0,18,0,27,0,5.2-4,9-8.9,8.7-.8,0-1.6-.3-2.5-.4,0,.4,0,.8,0,1.2,0,4.9-3.7,8.6-8.3,8.6-4.7,0-8.4-3.7-8.5-8.5,0-5.6,0-11.2,0-16.8v-20.6c0-.2,0-.4,0-.8-3.1-.7-5.6-2.3-7.7-4.9-2.1,2.5-4.6,4.1-7.8,4.9v1.6c0,8.9,0,17.9,0,26.8,0,5.2-4,9.1-9,8.8-.8,0-1.6-.3-2.5-.4,0,.4,0,.8,0,1.3,0,4.8-3.6,8.5-8.2,8.5-4.7,0-8.4-3.6-8.6-8.4,0-2.1,0-4.2,0-6.3v-31.5c-2.1-1.2-4.1-2.1-5.8-3.4-2.1-1.6-3.5-3.9-4.1-6.5-.1-.5-.3-.9-.5-1.3v-18.2Z"/>
  <path class="st0" d="M52.9,40.8c0-3.8-2.9-6.8-6.4-6.8-3.6,0-6.4,3-6.4,6.8,0,3.8,2.8,6.7,6.5,6.7,3.6,0,6.3-2.9,6.3-6.7M58.2,40.8c0,6.8-5.2,12.2-11.8,12.2-6.6,0-11.7-5.4-11.7-12.1,0-6.9,5.1-12.2,11.8-12.2,6.6,0,11.7,5.3,11.7,12.1"/>
  <path class="st0" d="M96.7,40.8c0-3.7-2.8-6.7-6.3-6.7-3.6,0-6.4,3-6.5,6.7,0,3.8,2.7,6.7,6.4,6.7,3.6,0,6.4-2.9,6.4-6.7M102.1,40.9c0,6.7-5.2,12.1-11.7,12.1-6.6,0-11.8-5.4-11.8-12.2,0-6.8,5.1-12.1,11.7-12.1,6.7,0,11.8,5.3,11.8,12.2"/>
  <path class="st0" d="M100.7,132.9c-1.4,0-2.7-1.2-2.7-2.6,0-1.4,1.3-2.7,2.6-2.7,1.5,0,2.7,1.2,2.7,2.7,0,1.5-1.2,2.6-2.6,2.6"/>
  <path class="st3" d="M10.4,107.7c-2.9-.9-5-3.6-5-6.9,0-5.2,0-10.5.2-15.7.3-5.1,5.4-10,10.4-10.1,5.7-.1,11.5,0,17.2,0,4.8.1,9.9,5.1,10.2,9.9.3,5.2.3,10.5.3,15.7,0,3.3-2,5.9-4.9,6.9,0-.5,0-1,0-1.4,0-5.4,0-10.9,0-16.3,0-.5,0-1.1-.2-1.6-.4-1.4-1.5-2.1-2.9-2-1.3.1-2.3,1.1-2.4,2.6,0,3.2,0,6.4,0,9.6,0,.5,0,1,0,1.7H15.8v-1.4c0-3.1,0-6.2,0-9.3,0-2-1-3.1-2.7-3.1-1.6,0-2.7,1.2-2.7,3.2,0,6,0,12,0,18.1"/>
  <path class="st3" d="M77.1,100.3h-17.4v-5.5c0-1.8,0-3.6,0-5.3,0-1.9-1-3-2.6-3-1.6,0-2.7,1.2-2.8,3.1,0,5.7,0,11.3,0,17v1.4c-2.5-1-4.1-2.8-4.8-5.3-.2-.8-.3-1.7-.3-2.5,0-4.2,0-8.5,0-12.7,0-6.2,3.6-10.8,9.5-12.3,1-.2,2-.3,3-.3,5,0,10.1,0,15.1.2,5.2.2,10.3,5,10.5,10.1.3,5.2.3,10.4.2,15.6,0,3.3-2.1,6-4.9,6.9v-1.5c0-5.4,0-10.8,0-16.2,0-.5,0-1.1-.1-1.6-.4-1.4-1.5-2.2-2.9-2.1-1.3,0-2.4,1.1-2.4,2.5,0,3.2,0,6.4,0,9.6v1.8"/>
  <path class="st3" d="M126.4,107.7v-5.2c0-4.4,0-8.7,0-13.1,0-1.3-.5-2.5-1.8-2.8-.8-.2-2.1,0-2.7.4-.6.5-1,1.7-1,2.6-.1,3,0,6.1,0,9.1,0,.5,0,1,0,1.6h-17.4c0-1.4,0-2.9,0-4.3,0-2.4,0-4.8,0-7.2,0-1.3-1.1-2.2-2.3-2.3-1.3-.1-2.4.5-2.8,1.8-.2.5-.2,1.1-.2,1.7,0,5.4,0,10.9,0,16.3v1.5c-2.8-.7-5-3.5-5-6.8,0-5.3,0-10.7.2-16,.3-4.8,5.4-9.7,10.2-9.9,5.8-.1,11.7-.1,17.5,0,4.6.1,9.6,4.5,10,9.3.5,5.9.3,11.9,0,17.8-.1,2.6-2,4.4-4.6,5.5"/>
  <path class="st2" d="M15.8,105.8c2.7,0,5.2,0,7.7,0,2.8,0,5.7.1,8.5.1s1.2.3,1.2,1.2c0,11.5,0,23,0,34.6,0,1.9-.8,3-2.2,3.4-1.3.4-2.6,0-3.2-1.2-.4-.7-.5-1.6-.5-2.4,0-8.6,0-17.2,0-25.8s0-.8,0-1.2c0-1.4-1.2-2.6-2.5-2.7-1.4,0-2.7,1.1-2.9,2.6,0,.4,0,.9,0,1.3v35c0,2.6-1.1,4.1-3,4.1-1.9,0-3.1-1.5-3.1-4.1v-44.8Z"/>
  <path class="st1" d="M59.6,105.8c2.8,0,5.5,0,8.1,0,2.7,0,5.4.1,8.1.1s1.3.2,1.3,1.2c0,11.5,0,23,0,34.6,0,1.4-.4,2.7-1.8,3.3-1.1.5-2.3.4-3-.5-.6-.8-1-2-1-3,0-8.6,0-17.3,0-25.9s0-.8,0-1.2c-.1-1.4-1.2-2.5-2.5-2.6-1.3,0-2.6.9-2.9,2.3,0,.5,0,1,0,1.5,0,11.7,0,23.4,0,35.1s-1,4-3,4.1c-1.9,0-3.1-1.5-3.1-4.1v-44.9Z"/>
  <path class="st3" d="M30.9,62.6c0,3.8-2.8,6.7-6.5,6.7-3.6,0-6.4-3-6.3-6.8,0-3.8,2.8-6.6,6.5-6.6,3.5,0,6.3,3,6.3,6.7"/>
  <path class="st3" d="M74.8,62.6c0,3.8-2.8,6.7-6.4,6.7-3.6,0-6.4-2.9-6.4-6.7,0-3.8,2.7-6.6,6.3-6.7,3.7,0,6.5,2.9,6.5,6.7"/>
  <path class="st3" d="M112.2,55.9c3.6,0,6.4,2.9,6.4,6.8,0,3.7-2.8,6.6-6.4,6.6-3.6,0-6.4-2.9-6.4-6.7,0-3.8,2.8-6.7,6.4-6.7"/>
  <path class="st3" d="M52.9,40.8c0,3.8-2.7,6.6-6.3,6.7-3.6,0-6.4-2.8-6.5-6.7,0-3.8,2.8-6.8,6.4-6.8,3.5,0,6.4,3,6.4,6.8"/>
  <path class="st3" d="M96.7,40.8c0,3.8-2.8,6.8-6.4,6.7-3.7,0-6.4-2.9-6.4-6.7,0-3.8,2.9-6.8,6.5-6.7,3.5,0,6.3,3,6.3,6.7"/>
</svg>