<?xml version="1.0" encoding="UTF-8"?>
<svg id="Calque_1" xmlns="http://www.w3.org/2000/svg" version="1.1" viewBox="0 0 159.2 162.7">
  <!-- Generator: Adobe Illustrator 29.3.0, SVG Export Plug-In . SVG Version: 2.1.0 Build 146)  -->
  <defs>
    <style>
      .st0 {
        fill: #17428d;
      }

      .st1 {
        fill: #1172b7;
      }

      .st2 {
        fill: #e65117;
      }

      .st3 {
        fill: #fff;
      }

      .st4 {
        fill: #c6d1eb;
      }
    </style>
  </defs>
  <path class="st4" d="M79.6,159.2c44,0,79.6-35.6,79.6-79.6S123.5,0,79.6,0,0,35.6,0,79.6s35.6,79.6,79.6,79.6"/>
  <polygon class="st3" points="68.4 102.4 73.9 102.4 76.9 104.7 79.1 102.4 130.9 102.4 133.4 105 136.2 102.4 141.7 102.4 141.7 89.4 68.4 89.4 68.4 102.4"/>
  <polygon class="st3" points="118.1 139.1 91.9 139.1 89.3 110.3 120.7 110.3 118.1 139.1"/>
  <rect class="st3" x="65.3" y="77.7" width="78.1" height="12.3"/>
  <polygon class="st2" points="68.4 102.4 73.9 102.4 76.9 104.7 79.1 102.4 130.9 102.4 133.4 105 136.2 102.4 141.7 102.4 141.7 89.4 68.4 89.4 68.4 102.4"/>
  <polygon class="st1" points="118.1 139.1 91.9 139.1 89.3 110.3 120.7 110.3 118.1 139.1"/>
  <path class="st0" d="M133.8,157.5h-57.6v-5.3h57.6v5.3ZM136.4,147h-5l4.7-44.5h-5.2l-4.7,44.5h-42.4l-4.7-44.5h-5.2l4.7,44.5h-5c-1.4,0-2.6,1.2-2.6,2.6v10.5c0,1.4,1.2,2.6,2.6,2.6h62.8c1.4,0,2.6-1.2,2.6-2.6v-10.5c0-1.4-1.2-2.6-2.6-2.6"/>
  <path class="st0" d="M141.7,86.8h-73.3v-5.3h73.3v5.3ZM88,72.4c0-9.5,7.7-17.1,17.1-17.1s17,7.6,17,17v4h-34.1v-3.9ZM105,34.4c4.3,0,7.9,3.5,7.9,7.9s-3.5,7.9-7.9,7.9-7.9-3.5-7.9-7.9,3.5-7.9,7.9-7.9M144.3,76.3h-2.6v-11.6c0-.7-.3-1.3-.7-1.8l-6.5-6.8c-1-1-2.7-1.1-3.7,0-1,1-1.1,2.7,0,3.7l5.8,6v10.5h-9.2v-4c0-9.1-5.5-17-13.4-20.4,2.6-2.4,4.3-5.8,4.3-9.7,0-7.2-5.9-13.1-13.1-13.1s-13.1,5.9-13.1,13.1,1.6,7.3,4.3,9.7c-7.9,3.4-13.4,11.2-13.4,20.4v4h-17c-1.4,0-2.6,1.2-2.6,2.6v10.5c0,1.4,1.2,2.6,2.6,2.6h78.5c1.4,0,2.6-1.2,2.6-2.6v-10.5c0-1.4-1.2-2.6-2.6-2.6"/>
</svg>