<?xml version="1.0" encoding="UTF-8"?>
<svg id="Calque_1" xmlns="http://www.w3.org/2000/svg" version="1.1" viewBox="0 0 153.6 157">
  <!-- Generator: Adobe Illustrator 29.3.0, SVG Export Plug-In . SVG Version: 2.1.0 Build 146)  -->
  <defs>
    <style>
      .st0 {
        fill: #17428d;
      }

      .st1 {
        fill: #1172b7;
      }

      .st2 {
        fill: #e65117;
      }

      .st3 {
        fill: #fff;
      }

      .st4 {
        fill: #c6d1eb;
      }
    </style>
  </defs>
  <path class="st4" d="M76.8,153.6c42.4,0,76.8-34.4,76.8-76.8S119.2,0,76.8,0,0,34.4,0,76.8s34.4,76.8,76.8,76.8"/>
  <path class="st3" d="M27.7,31.4v.5s2,114.4,2,114.4l39.6-4v11.9c0,0,81.3,0,81.3,0V31.4s-27.7,4-47.6,4h-47.6"/>
  <path class="st0" d="M150.7,28.2c-40.8,6.8-83.7,6.6-123,0-1.5-.3-2.9.9-2.9,2.5v116.2c0,1.6,1.4,2.7,2.9,2.5,13-2.2,26.4-3.6,40-4.4v9.5c0,1.4,1.1,2.5,2.5,2.5h80.9c1.4,0,2.5-1.1,2.5-2.5V30.7c0-1.5-1.4-2.7-2.9-2.5M29.8,143.9V33.6c37.9,6,79.2,6.3,118.8,0v80.4h-5.1v-1.3c0-6.4-3.7-11.9-9-14.6,1.7-1.8,2.7-4.2,2.7-6.8,0-5.6-4.5-10.1-10.1-10.1s-10.1,4.5-10.1,10.1,1,5,2.7,6.8c-5.3,2.7-9,8.3-9,14.6v1.3h-5.1v-1.3c0-6.4-3.7-11.9-9-14.6,1.7-1.8,2.7-4.2,2.7-6.8,0-5.6-4.5-10.1-10.1-10.1s-10.1,4.5-10.1,10.1,1,5,2.7,6.8c-5.3,2.7-9,8.3-9,14.6v1.3h-2.5c-1.4,0-2.5,1.1-2.5,2.5v23.3c-12.9.7-25.6,2.1-37.9,4M127.1,96.4c-2.8,0-5.1-2.3-5.1-5.1s2.3-5.1,5.1-5.1,5.1,2.3,5.1,5.1-2.3,5.1-5.1,5.1M127.1,101.4c6.3,0,11.4,5.1,11.4,11.4v1.3h-22.8v-1.3c0-6.3,5.1-11.4,11.4-11.4M89.2,96.4c-2.8,0-5.1-2.3-5.1-5.1s2.3-5.1,5.1-5.1,5.1,2.3,5.1,5.1-2.3,5.1-5.1,5.1M89.2,101.4c6.3,0,11.4,5.1,11.4,11.4v1.3h-22.8v-1.3c0-6.3,5.1-11.4,11.4-11.4M148.6,151.9h-75.8v-32.9h75.8v32.9Z"/>
  <rect class="st1" x="39.9" y="45.8" width="43" height="25.3"/>
  <rect class="st2" x="95.5" y="45.8" width="43" height="25.3"/>
</svg>